<?xml version="1.0" encoding="UTF-8"?> <svg xmlns="http://www.w3.org/2000/svg" width="88" height="44" viewBox="0 0 88 44" fill="none"><path d="M9.89942 5.05818H9.05977H1.55094L0 7.72838L3.77916 14.2327H14.3899H15.2311L22.9672 14.2311L28.2973 5.05664L9.89942 5.05818Z" fill="#035CA7"></path><path d="M19.1123 22.2826L18.6794 21.5379L14.809 14.877H4.19824L13.374 30.6709L13.807 31.4141L17.5475 37.8508H20.6478L24.4022 31.388L19.1123 22.2826Z" fill="#1B3066"></path><path d="M36.6411 4.98047H29.1616L23.8315 14.155L23.414 14.8766L19.5312 21.5591L24.8227 30.6645L33.9938 14.8751L34.4113 14.155L38.1905 7.64914L36.6411 4.98047Z" fill="#2E93D1"></path><path d="M63.0242 14.8535L53.4805 37.852H48.1117L38.1582 14.8535H44.2986L50.6539 30.6782L57.1916 14.8535H63.0242Z" fill="#035CA7"></path><path d="M81.3833 19.5376H74.1744V37.8251H68.5938L68.5784 19.5376H62.1504L63.9673 14.8574H81.3833V19.5376Z" fill="#035CA7"></path><path d="M88.0003 37.852H82.3408V14.8535H88.0003V37.852Z" fill="#035CA7"></path></svg> 