<?xml version="1.0" encoding="UTF-8"?> <svg xmlns="http://www.w3.org/2000/svg" width="88" height="44" viewBox="0 0 88 44" fill="none"><path d="M9.88198 4.23202H9.04382H1.54821L0 6.92612L3.7725 13.4887H14.3645H15.2042L22.9267 13.4871L28.2475 4.23047L9.88198 4.23202Z" fill="white"></path><path d="M19.0787 21.6106L18.6465 20.8592L14.7829 14.1387H4.19092L13.3505 30.074L13.7827 30.8239L17.5166 37.3182H20.6115L24.3593 30.7975L19.0787 21.6106Z" fill="white"></path><path d="M36.5767 4.1543H29.1105L23.7898 13.4109L23.373 14.1391L19.4971 20.8813L24.7792 30.0682L33.9341 14.1375L34.3509 13.4109L38.1234 6.84685L36.5767 4.1543Z" fill="white"></path><path d="M62.9131 14.1152L53.3861 37.3196H48.0268L38.0908 14.1152H44.2204L50.5645 30.0816L57.0907 14.1152H62.9131Z" fill="white"></path><path d="M81.24 18.8412H74.0439V37.2925H68.4731L68.4577 18.8412H62.041L63.8547 14.1191H81.24V18.8412Z" fill="white"></path><path d="M87.845 37.3196H82.1956V14.1152H87.845V37.3196Z" fill="white"></path></svg> 